  0
SECTION
  2
ENTITIES
999
DXF created from EnergyPlus
999
Program Version,EnergyPlus, Version 26.1.0-e6064cf3c2, YMD=2026.05.19 23:07
999
Polygon Action,TRIANGULATE3DFACE
999
Color Scheme,Default
999
Text - True North
  0
TEXT
  8
1
  6
Continuous
 62
  3
 10
      -14.42840
 20
      -22.25780
 30
        0.10000
 40
 .25
  1
True North
 41
 0.0
  7
MONOTXT
210
0.0
220
0.0
230
1.0
999
Text - Building Title
  0
TEXT
  8
1
  6
Continuous
 62
  3
 10
      -17.42840
 20
      -26.25780
 30
        0.10000
 40
 .4
  1
Building - Building
 41
 0.0
  7
MONOTXT
210
0.0
220
0.0
230
1.0
999
North Arrow Stem
  0
3DFACE
  8
1
 62
  3
 10
      -13.42840
 20
      -22.25780
 30
        0.10000
 11
      -13.42840
 21
      -22.25780
 31
        0.00000
 12
      -13.42840
 22
      -25.25780
 32
        0.00000
 13
      -13.42840
 23
      -25.25780
 33
        0.10000
999
North Arrow Head 1
  0
3DFACE
  8
1
 62
  3
 10
      -13.42840
 20
      -22.25780
 30
        0.10000
 11
      -13.42840
 21
      -22.25780
 31
        0.00000
 12
      -13.92840
 22
      -23.12383
 32
        0.00000
 13
      -13.92840
 23
      -23.12383
 33
        0.10000
999
North Arrow Head 2
  0
3DFACE
  8
1
 62
  3
 10
      -13.42840
 20
      -22.25780
 30
        0.10000
 11
      -13.42840
 21
      -22.25780
 31
        0.00000
 12
      -12.92840
 22
      -23.12383
 32
        0.00000
 13
      -12.92840
 23
      -23.12383
 33
        0.10000
999
North Arrow Side 1
  0
3DFACE
  8
1
 62
  3
 10
      -13.92840
 20
      -20.75780
 30
        0.10000
 11
      -13.92840
 21
      -20.75780
 31
        0.00000
 12
      -13.92840
 22
      -21.75780
 32
        0.00000
 13
      -13.92840
 23
      -21.75780
 33
        0.10000
999
North Arrow Side 2
  0
3DFACE
  8
1
 62
  3
 10
      -13.92840
 20
      -20.75780
 30
        0.10000
 11
      -13.92840
 21
      -20.75780
 31
        0.00000
 12
      -12.92840
 22
      -21.75780
 32
        0.00000
 13
      -12.92840
 23
      -21.75780
 33
        0.10000
999
North Arrow Side 3
  0
3DFACE
  8
1
 62
  3
 10
      -12.92840
 20
      -20.75780
 30
        0.10000
 11
      -12.92840
 21
      -20.75780
 31
        0.00000
 12
      -12.92840
 22
      -21.75780
 32
        0.00000
 13
      -12.92840
 23
      -21.75780
 33
        0.10000
999
Zone Names
999
Zone=1:ZONE_0
999
Building Shading:PANEL0SURF
  0
3DFACE
  8
Building Shading
 62
174
 10
        0.78730
 20
        5.49280
 30
        0.00000
 11
        0.78730
 21
        1.49280
 31
        0.00000
 12
        4.78730
 22
        1.49280
 32
        0.00000
 13
        4.78730
 23
        5.49280
 33
        0.00000
999
Building Shading:Mir-PANEL0SURF
  0
3DFACE
  8
Building Shading
 62
195
 10
        4.78730
 20
        5.49280
 30
        0.00000
 11
        4.78730
 21
        1.49280
 31
        0.00000
 12
        0.78730
 22
        1.49280
 32
        0.00000
 13
        0.78730
 23
        5.49280
 33
        0.00000
999
Building Shading:SHADER_0
  0
3DFACE
  8
Building Shading
 62
195
 10
       -3.42840
 20
       42.96000
 30
       68.69810
 11
       -3.42840
 21
       42.96000
 31
       -0.81060
 12
       -3.42840
 22
      -25.25780
 32
       -0.81060
 13
       -3.42840
 23
      -25.25780
 33
       68.69810
999
Building Shading:Mir-SHADER_0
  0
3DFACE
  8
Building Shading
 62
195
 10
       -3.42840
 20
      -25.25780
 30
       68.69810
 11
       -3.42840
 21
      -25.25780
 31
       -0.81060
 12
       -3.42840
 22
       42.96000
 32
       -0.81060
 13
       -3.42840
 23
       42.96000
 33
       68.69810
999
ZONE_0:ZONE_0:F0
  0
3DFACE
  8
ZONE_0
 62
 43
 10
        0.71630
 20
       10.76220
 30
        4.00000
 11
        0.71630
 21
       10.76220
 31
        0.00000
 12
        0.71630
 22
        6.76220
 32
        0.00000
 13
        0.71630
 23
        6.76220
 33
        4.00000
999
ZONE_0:ZONE_0:F0:W0
  0
3DFACE
  8
ZONE_0
 62
143
 10
        0.71630
 20
       10.02710
 30
        3.26490
 11
        0.71630
 21
       10.02710
 31
        0.73510
 12
        0.71630
 22
        7.49730
 32
        0.73510
 13
        0.71630
 23
        7.49730
 33
        3.26490
999
ZONE_0:ZONE_0:F1
  0
3DFACE
  8
ZONE_0
 62
 43
 10
        0.71630
 20
        6.76220
 30
        4.00000
 11
        0.71630
 21
        6.76220
 31
        0.00000
 12
        4.71630
 22
        6.76220
 32
        0.00000
 13
        4.71630
 23
        6.76220
 33
        4.00000
999
ZONE_0:ZONE_0:F1:W0
  0
3DFACE
  8
ZONE_0
 62
143
 10
        1.45130
 20
        6.76220
 30
        3.26490
 11
        1.45130
 21
        6.76220
 31
        0.73510
 12
        3.98120
 22
        6.76220
 32
        0.73510
 13
        3.98120
 23
        6.76220
 33
        3.26490
999
ZONE_0:ZONE_0:F2
  0
3DFACE
  8
ZONE_0
 62
 43
 10
        4.71630
 20
        6.76220
 30
        4.00000
 11
        4.71630
 21
        6.76220
 31
        0.00000
 12
        4.71630
 22
       10.76220
 32
        0.00000
 13
        4.71630
 23
       10.76220
 33
        4.00000
999
ZONE_0:ZONE_0:F2:W0
  0
3DFACE
  8
ZONE_0
 62
143
 10
        4.71630
 20
        7.49730
 30
        3.26490
 11
        4.71630
 21
        7.49730
 31
        0.73510
 12
        4.71630
 22
       10.02710
 32
        0.73510
 13
        4.71630
 23
       10.02710
 33
        3.26490
999
ZONE_0:ZONE_0:F3
  0
3DFACE
  8
ZONE_0
 62
 43
 10
        4.71630
 20
       10.76220
 30
        4.00000
 11
        4.71630
 21
       10.76220
 31
        0.00000
 12
        0.71630
 22
       10.76220
 32
        0.00000
 13
        0.71630
 23
       10.76220
 33
        4.00000
999
ZONE_0:ZONE_0:F3:W0
  0
3DFACE
  8
ZONE_0
 62
143
 10
        3.98120
 20
       10.76220
 30
        3.26490
 11
        3.98120
 21
       10.76220
 31
        0.73510
 12
        1.45130
 22
       10.76220
 32
        0.73510
 13
        1.45130
 23
       10.76220
 33
        3.26490
999
ZONE_0:ZONE_0:F4
  0
3DFACE
  8
ZONE_0
 62
  8
 10
        0.71630
 20
        6.76220
 30
        0.00000
 11
        0.71630
 21
       10.76220
 31
        0.00000
 12
        4.71630
 22
       10.76220
 32
        0.00000
 13
        4.71630
 23
        6.76220
 33
        0.00000
999
ZONE_0:ZONE_0:F5
  0
3DFACE
  8
ZONE_0
 62
 15
 10
        4.71630
 20
       10.76220
 30
        4.00000
 11
        0.71630
 21
       10.76220
 31
        4.00000
 12
        0.71630
 22
        6.76220
 32
        4.00000
 13
        4.71630
 23
        6.76220
 33
        4.00000
999
ZONE_0:DayRefPt:ZONE_0_DAYLCTRLREFPT1
  0
CIRCLE
  8
ZONE_0
 62
 10
 10
        2.71625
 20
        8.76223
 30
        0.85000
 40
        0.20000
  0
ENDSEC
  0
EOF
